<svg width="512" height="512" viewBox="0 0 512 512" fill="none" xmlns="http://www.w3.org/2000/svg">
  <!-- Background with gradient -->
  <defs>
    <linearGradient id="bgGradient512" x1="0%" y1="0%" x2="100%" y2="100%">
      <stop offset="0%" style="stop-color:#2563eb;stop-opacity:1" />
      <stop offset="100%" style="stop-color:#1e40af;stop-opacity:1" />
    </linearGradient>
  </defs>
  
  <rect width="512" height="512" rx="112" fill="url(#bgGradient512)"/>
  
  <!-- Shield shadow -->
  <path d="M256 106.667L149.333 149.333V234.667C149.333 303.467 196.267 364.8 256 384C315.733 364.8 362.667 303.467 362.667 234.667V149.333L256 106.667Z" 
        fill="black" opacity="0.1" transform="translate(0, 10)"/>
  
  <!-- Shield outline -->
  <path d="M256 106.667L149.333 149.333V234.667C149.333 303.467 196.267 364.8 256 384C315.733 364.8 362.667 303.467 362.667 234.667V149.333L256 106.667Z" 
        fill="white" opacity="0.15"/>
  
  <!-- Shield main -->
  <path d="M256 128L170.667 160V234.667C170.667 292.267 208.533 343.467 256 362.667C303.467 343.467 341.333 292.267 341.333 234.667V160L256 128Z" 
        fill="white"/>
  
  <!-- Emergency cross background circle -->
  <circle cx="256" cy="234.667" r="58.667" fill="#2563eb"/>
  
  <!-- White circle for contrast -->
  <circle cx="256" cy="234.667" r="48" fill="white"/>
  
  <!-- Red emergency cross -->
  <rect x="242.667" y="194.667" width="26.667" height="80" rx="5.333" fill="#ef4444"/>
  <rect x="216" y="221.333" width="80" height="26.667" rx="5.333" fill="#ef4444"/>
</svg>